<?xml version="1.0" encoding="UTF-8"?>
<svg xmlns="http://www.w3.org/2000/svg" id="Layer_2" viewBox="0 0 1651.01 379.78">
  <g id="Layer_1-2">
    <path d="m290.72,137.45c-3.4,0-6.15-2.75-6.15-6.15,0-3.4,2.75-6.15,6.15-6.15,3.4,0,6.15,2.75,6.15,6.15s-2.75,6.15-6.15,6.15Z" style="fill:#fff; stroke-width:0px;"></path>
    <circle cx="210.17" cy="52.17" r="11.49" style="fill:#fff; stroke-width:0px;"></circle>
    <path d="m0,184.14c0,107.88,87.77,195.64,195.64,195.64,107.88,0,195.64-87.77,195.64-195.64v-25.89s-.04.02-.04.02c.02-.51.06-1.02.06-1.54v-9.64s-16.66,0-16.66,0c10.51-8.96,16.66-22.1,16.66-36.05v-5.66s-55.24,0-55.24,0c-9.91,0-18.34,6.49-21.25,15.45-4.2-9.11-13.42-15.45-24.1-15.45h-26.52v-52.67C264.2,23.64,240.56,0,211.5,0s-52.7,23.64-52.7,52.7c0,29.06,23.64,52.7,52.7,52.7h19.71c0,43.81-39.63,86.73-89.72,91.03-25.39-2.62-49.94-7.09-73.25-13.34-29.13-14.04-50.23-44.24-50.23-77.59v-.11h83.01s0-.07,0-.07c32.14-1.4,57.85-27.97,57.85-60.45v-1.09C158.87,19.64,139.22,0,115.08,0H1.3s0,8.35,0,8.35c0,33.38,16.94,62.88,42.67,80.35H1.3s0,16.81,0,16.81c0,23.8,8.37,45.67,22.31,62.86-3.74-1.49-7.45-3.03-11.1-4.62l-11.46-5.01-.63,12.49C.41,171.57,0,179.77,0,184.14Zm247.5-95.44h-36c-19.85,0-36-16.15-36-36,0-19.85,16.15-36,36-36,19.85,0,36,16.15,36,36v36Zm24.56,68.02c0,13.49,5.52,25.7,14.4,34.53-29.05,5.24-59.54,7.96-90.81,7.96-1.87,0-3.72-.04-5.59-.06,36.32-19.27,57.85-55.46,57.85-93.76h16.29v26.49c0,7.03,2.85,13.85,7.85,18.82v6.02Zm33.86-24.83c0,8.38-6.82,15.19-15.19,15.19-8.38,0-15.19-6.81-15.19-15.19v-15.19h15.19c8.38,0,15.19,6.81,15.19,15.19Zm73.27,31.68c-24.14,10.6-50.44,18.91-78.21,24.84-10.38-6.51-17.36-17.95-17.58-31.03,2.38.68,4.84,1.03,7.33,1.03,11.86,0,21.93-7.83,25.31-18.59,4.16,10.03,13.56,17.34,24.91,18.44v.12s1.74.03,1.74.03h37.26c-.08,1.74-.32,3.44-.64,5.11l-.11.05Zm-109.21,182.66c2.63-13.04,3.98-26.36,3.98-39.8,0-1.87-.05-3.73-.1-5.59,29.19-27.45,49.74-63.45,58.45-102.34,14.4-4.03,28.33-8.71,41.71-14.04-.12,71.7-42.79,133.57-104.04,161.77Zm-50.97,14.71c-.12-55.45-23.46-108.34-63.46-145.92,13.21.97,26.58,1.48,40.1,1.48,12.38,0,24.65-.42,36.77-1.23,15.89,27.66,24.26,58.94,24.26,91.16,0,16.11-2.08,32.02-6.19,47.42-10.13,3.28-20.66,5.66-31.49,7.09ZM17.27,184.45c33.07,13.18,69.57,22.44,108.07,27.5h0c47.54,34.4,76.34,91.81,76.4,150.4-2.03.07-4.05.15-6.1.15-8.79,0-17.42-.67-25.87-1.9-17.1-74.86-75.73-133.49-150.59-150.6-1.22-8.35-1.89-16.88-1.9-25.56Z" style="fill:#fff; stroke-width:0px;"></path>
    <path d="m537.27,240.38h14.04v80.69h-14.04v-13.88c-7,10.65-17.16,15.98-30.5,15.98-11.3,0-20.93-4.12-28.89-12.35-7.96-8.23-11.94-18.26-11.94-30.1s3.98-21.87,11.94-30.1c7.96-8.23,17.59-12.35,28.89-12.35,13.34,0,23.5,5.33,30.5,15.98v-13.88Zm-28.73,69.23c8.18,0,15.01-2.77,20.49-8.31,5.49-5.54,8.23-12.4,8.23-20.58s-2.74-15.03-8.23-20.58c-5.49-5.54-12.32-8.31-20.49-8.31s-14.85,2.77-20.33,8.31c-5.49,5.54-8.23,12.4-8.23,20.58s2.74,15.03,8.23,20.58c5.49,5.54,12.27,8.31,20.33,8.31Z" style="fill:#fff; stroke-width:0px;"></path>
    <path d="m610.54,323.17c-12.16,0-22.27-4.06-30.34-12.18-8.07-8.12-12.1-18.21-12.1-30.26s4.03-22.13,12.1-30.26c8.07-8.12,18.18-12.18,30.34-12.18,7.96,0,15.11,1.91,21.46,5.73,6.35,3.82,11.08,8.96,14.2,15.41l-11.78,6.78c-2.04-4.3-5.19-7.75-9.44-10.33-4.25-2.58-9.07-3.87-14.44-3.87-8.07,0-14.82,2.74-20.25,8.23-5.43,5.49-8.15,12.32-8.15,20.49s2.72,14.85,8.15,20.33c5.43,5.49,12.18,8.23,20.25,8.23,5.38,0,10.22-1.26,14.52-3.79,4.3-2.53,7.59-5.94,9.85-10.25l11.94,6.94c-3.44,6.35-8.39,11.43-14.85,15.25-6.46,3.82-13.61,5.73-21.46,5.73Z" style="fill:#fff; stroke-width:0px;"></path>
    <path d="m726.4,240.38h14.04v80.69h-14.04v-13.88c-7,10.65-17.16,15.98-30.5,15.98-11.3,0-20.93-4.12-28.89-12.35-7.96-8.23-11.94-18.26-11.94-30.1s3.98-21.87,11.94-30.1c7.96-8.23,17.59-12.35,28.89-12.35,13.34,0,23.5,5.33,30.5,15.98v-13.88Zm-28.73,69.23c8.18,0,15.01-2.77,20.49-8.31,5.49-5.54,8.23-12.4,8.23-20.58s-2.74-15.03-8.23-20.58c-5.49-5.54-12.32-8.31-20.49-8.31s-14.85,2.77-20.33,8.31c-5.49,5.54-8.23,12.4-8.23,20.58s2.74,15.03,8.23,20.58c5.49,5.54,12.27,8.31,20.33,8.31Z" style="fill:#fff; stroke-width:0px;"></path>
    <path d="m828.56,208.11h14.04v112.96h-14.04v-13.88c-7,10.65-17.16,15.98-30.5,15.98-11.3,0-20.93-4.12-28.89-12.35-7.96-8.23-11.94-18.26-11.94-30.1s3.98-21.87,11.94-30.1c7.96-8.23,17.59-12.35,28.89-12.35,13.34,0,23.5,5.33,30.5,15.98v-46.15Zm-28.73,101.51c8.18,0,15.01-2.77,20.49-8.31,5.49-5.54,8.23-12.4,8.23-20.58s-2.74-15.03-8.23-20.58c-5.49-5.54-12.32-8.31-20.49-8.31s-14.85,2.77-20.33,8.31c-5.49,5.54-8.23,12.4-8.23,20.58s2.74,15.03,8.23,20.58c5.49,5.54,12.27,8.31,20.33,8.31Z" style="fill:#fff; stroke-width:0px;"></path>
    <path d="m873.74,287.18c1.4,7.21,4.7,12.8,9.92,16.78,5.22,3.98,11.64,5.97,19.28,5.97,10.65,0,18.4-3.93,23.24-11.78l11.94,6.78c-7.85,12.16-19.69,18.24-35.5,18.24-12.8,0-23.21-4.01-31.23-12.02-8.01-8.01-12.02-18.15-12.02-30.42s3.93-22.27,11.78-30.34c7.85-8.07,18.02-12.1,30.5-12.1,11.83,0,21.49,4.17,28.97,12.51,7.48,8.34,11.21,18.37,11.21,30.1,0,2.04-.16,4.14-.48,6.29h-67.62Zm27.92-35.66c-7.53,0-13.77,2.13-18.72,6.37-4.95,4.25-8.02,9.92-9.2,17.02h53.9c-1.18-7.64-4.2-13.45-9.04-17.43-4.84-3.98-10.49-5.97-16.95-5.97Z" style="fill:#fff; stroke-width:0px;"></path>
    <path d="m1045.12,238.28c9.04,0,16.35,2.93,21.95,8.8,5.59,5.86,8.39,13.8,8.39,23.8v50.19h-14.04v-49.7c0-6.24-1.61-11.08-4.84-14.52-3.23-3.44-7.53-5.16-12.91-5.16-6.03,0-10.84,2.02-14.44,6.05-3.61,4.03-5.41,10.19-5.41,18.48v44.86h-14.04v-49.7c0-6.24-1.53-11.08-4.6-14.52-3.07-3.44-7.24-5.16-12.51-5.16-5.92,0-10.84,2.04-14.77,6.13-3.93,4.09-5.89,10.22-5.89,18.4v44.86h-14.04v-80.69h14.04v10.81c5.49-8.61,13.5-12.91,24.04-12.91s18.77,4.57,23.72,13.72c5.59-9.14,14.04-13.72,25.34-13.72Z" style="fill:#fff; stroke-width:0px;"></path>
    <path d="m1149.53,240.38h15.01l-32.92,85.69c-3.44,9.14-8.26,16.11-14.44,20.9-6.19,4.79-13.31,6.91-21.38,6.37v-13.07c9.86.75,17.09-4.75,21.7-16.5l1.54-3.03-35.18-80.36h15.01l26.9,61.86,23.77-61.86Z" style="fill:#fff; stroke-width:0px;"></path>
    <polygon points="1581.56 33.53 1591.78 33.53 1591.78 64.42 1599.29 64.42 1599.29 33.53 1609.57 33.53 1609.57 26.35 1581.56 26.35 1581.56 33.53" style="fill:#fff; stroke-width:0px;"></polygon>
    <polygon points="1632.39 44.33 1621.48 26.35 1613.75 26.35 1613.75 64.42 1621.26 64.42 1621.26 39.82 1631.94 57.42 1632.82 57.39 1643.56 39.73 1643.56 64.42 1651.01 64.42 1651.01 26.35 1643.25 26.35 1632.39 44.33" style="fill:#fff; stroke-width:0px;"></polygon>
    <polygon points="609.96 26.7 586.74 117.18 561.12 26.7 540.23 26.7 514.71 117.41 491.17 26.7 465.95 26.7 498.34 149.05 527.42 149.05 550.43 67.87 573.61 149.05 601.05 149.05 633.2 26.7 609.96 26.7" style="fill:#fff; stroke-width:0px;"></polygon>
    <path d="m706.38,101.34c.99,7.25-1.57,13.93-7.66,20.02-9.47,9.47-19.16,11.41-29.04,5.81l46.59-46.59c-1.89-2.72-3.87-5.11-5.93-7.17-9.23-9.23-19.92-14.03-32.07-14.4-12.15-.37-22.76,3.98-31.82,13.04-9.56,9.56-14.27,20.5-14.15,32.81.12,12.32,4.84,23.13,14.15,32.44,9.39,9.39,20.27,14.09,32.63,14.09s23.65-5.11,33.86-15.33c11.86-11.86,16.44-25.25,13.72-40.17l-20.27,5.44Zm-52.96-1.05c.62-4.98,3.07-9.62,7.35-13.9,3.62-3.62,7.89-5.83,12.79-6.61,4.9-.78,9.91.48,15.02,3.77l-31.52,31.51c-3.05-4.86-4.26-9.78-3.65-14.77Z" style="fill:#fff; stroke-width:0px;"></path>
    <path d="m805.02,71.97c-6.76-8.5-16.25-12.76-28.49-12.76s-21.65,4.46-29.98,13.37c-8.33,8.91-12.5,19.84-12.5,32.77s4.16,23.86,12.5,32.77c8.33,8.91,18.32,13.37,29.98,13.37,12.23,0,21.73-4.25,28.49-12.76v10.31h22.55V61.66h-22.55v10.31Zm-6.9,51.12c-4.6,4.6-10.4,6.9-17.39,6.9s-12.76-2.3-17.3-6.9c-4.54-4.6-6.82-10.51-6.82-17.74s2.27-13.14,6.82-17.74c4.54-4.6,10.31-6.9,17.3-6.9s12.79,2.3,17.39,6.9c4.6,4.6,6.9,10.52,6.9,17.74s-2.3,13.14-6.9,17.74Z" style="fill:#fff; stroke-width:0px;"></path>
    <polygon points="884.23 122.82 863.04 61.66 838.23 61.66 871.43 149.05 897.13 149.05 930.33 61.66 905.52 61.66 884.23 122.82" style="fill:#fff; stroke-width:0px;"></polygon>
    <path d="m1006.3,101.34c.99,7.25-1.57,13.93-7.66,20.02-9.47,9.47-19.16,11.41-29.04,5.81l46.59-46.59c-1.89-2.72-3.87-5.11-5.93-7.17-9.23-9.23-19.92-14.03-32.07-14.4-12.15-.37-22.76,3.98-31.82,13.04-9.56,9.56-14.27,20.5-14.15,32.81.12,12.32,4.84,23.13,14.15,32.44,9.39,9.39,20.27,14.09,32.63,14.09s23.65-5.11,33.86-15.33c11.86-11.86,16.44-25.25,13.72-40.17l-20.27,5.44Zm-52.96-1.05c.62-4.98,3.07-9.62,7.35-13.9,3.63-3.62,7.89-5.83,12.79-6.61,4.9-.78,9.91.48,15.02,3.77l-31.52,31.51c-3.05-4.86-4.26-9.78-3.65-14.77Z" style="fill:#fff; stroke-width:0px;"></path>
    <path d="m1061.77,76.69v-15.03h-22.55v87.39h22.55v-41.77c0-8.39,2.71-14.39,8.13-18,5.42-3.61,11.56-5.01,18.44-4.19v-25.17c-5.94,0-11.33,1.4-16.17,4.19-4.84,2.8-8.3,6.99-10.4,12.58Z" style="fill:#fff; stroke-width:0px;"></path>
    <path d="m1148.63,100.2c-4.43-1.69-8.86-3.09-13.28-4.19-4.43-1.11-8.19-2.39-11.27-3.85-3.09-1.46-4.63-3.35-4.63-5.68,0-2.21.96-3.96,2.88-5.24,1.92-1.28,4.34-1.92,7.25-1.92,6.52,0,11.19,2.97,13.98,8.91l19.23-10.49c-3.38-5.94-7.98-10.51-13.81-13.72-5.83-3.2-12.29-4.81-19.4-4.81-9.44,0-17.33,2.48-23.68,7.43-6.35,4.95-9.53,11.74-9.53,20.36,0,5.71,1.54,10.46,4.63,14.25,3.09,3.79,6.84,6.55,11.27,8.3,4.43,1.75,8.85,3.21,13.28,4.37,4.43,1.17,8.18,2.48,11.27,3.93,3.09,1.46,4.63,3.35,4.63,5.68,0,5.01-4.02,7.51-12.06,7.51-8.86,0-14.57-3.78-17.13-11.36l-19.58,11.01c6.52,13.87,18.76,20.8,36.7,20.8,10.02,0,18.38-2.42,25.08-7.25,6.7-4.83,10.05-11.74,10.05-20.71,0-5.94-1.55-10.89-4.63-14.86-3.09-3.96-6.85-6.79-11.27-8.48Z" style="fill:#fff; stroke-width:0px;"></path>
    <polygon points="1346.6 26.35 1323.38 116.83 1297.76 26.35 1276.87 26.35 1251.35 117.06 1227.81 26.35 1202.58 26.35 1234.98 148.7 1264.05 148.7 1287.07 67.52 1310.25 148.7 1337.69 148.7 1369.83 26.35 1346.6 26.35" style="fill:#fff; stroke-width:0px;"></polygon>
    <path d="m1443.02,100.99c.99,7.25-1.57,13.93-7.66,20.02-9.47,9.47-19.16,11.41-29.04,5.81l46.59-46.59c-1.89-2.72-3.87-5.11-5.93-7.17-9.23-9.23-19.92-14.03-32.07-14.4-12.15-.37-22.76,3.98-31.82,13.04-9.56,9.56-14.27,20.5-14.15,32.81.12,12.32,4.84,23.13,14.15,32.44,9.39,9.39,20.27,14.09,32.63,14.09s23.65-5.11,33.86-15.32c11.86-11.86,16.44-25.25,13.72-40.17l-20.27,5.44Zm-52.96-1.05c.62-4.98,3.07-9.62,7.35-13.9,3.62-3.62,7.89-5.83,12.79-6.61,4.9-.78,9.91.48,15.02,3.77l-31.52,31.52c-3.05-4.86-4.26-9.78-3.65-14.77Z" style="fill:#fff; stroke-width:0px;"></path>
    <path d="m1556.95,72.23c-8.33-8.91-18.38-13.37-30.15-13.37s-21.67,4.25-28.31,12.76V26.35h-22.55v122.35h22.55v-10.31c6.64,8.51,16.08,12.76,28.31,12.76s21.82-4.46,30.15-13.37c8.33-8.91,12.5-19.84,12.5-32.77s-4.17-23.86-12.5-32.77Zm-16.95,50.51c-4.61,4.6-10.4,6.9-17.39,6.9s-12.76-2.3-17.3-6.9c-4.54-4.6-6.82-10.51-6.82-17.74s2.27-13.14,6.82-17.74c4.54-4.6,10.31-6.9,17.3-6.9s12.79,2.3,17.39,6.9c4.6,4.6,6.9,10.52,6.9,17.74s-2.3,13.14-6.9,17.74Z" style="fill:#fff; stroke-width:0px;"></path>
  </g>
</svg>
